<?xml version="1.0" ?><svg height="64" id="svg8" version="1.1" viewBox="0 0 16.933333 16.933334" width="64" xmlns="http://www.w3.org/2000/svg" xmlns:cc="http://creativecommons.org/ns#" xmlns:dc="http://purl.org/dc/elements/1.1/" xmlns:inkscape="http://www.inkscape.org/namespaces/inkscape" xmlns:rdf="http://www.w3.org/1999/02/22-rdf-syntax-ns#" xmlns:sodipodi="http://sodipodi.sourceforge.net/DTD/sodipodi-0.dtd" xmlns:svg="http://www.w3.org/2000/svg"><defs id="defs2"/><g id="layer1"><path d="M 8.4655803,0 C 8.3976922,0 8.3297068,0.02610368 8.2779978,0.07803222 L 6.9561366,1.4004458 C 6.7902549,1.567305 6.908441,1.851451 7.1437188,1.8515857 h 0.529158 V 2.6639475 C 7.3767968,2.4938839 7.0171525,2.3787163 6.6140442,2.3807578 H 6.0848862 V 1.8515857 C 6.0846346,1.7445094 6.0201145,1.6483574 5.9210745,1.6076705 5.8221545,1.5662201 5.7076538,1.5882789 5.6316914,1.6639983 L 4.3093132,2.988479 c -0.1025516,0.103198 -0.1025516,0.2699093 0,0.3731076 l 1.3223782,1.3239638 c 0.1667085,0.1692665 0.4548262,0.04999 0.4531948,-0.1875873 V 3.968791 h 0.529158 c 0.2892393,-5.9e-5 0.5296746,0.2369841 0.5296746,0.5291721 V 5.539254 c 0,0.2675259 0.070084,0.5021417 0.1922331,0.70229 C 7.1520727,6.3551316 6.9470586,6.4991431 6.7561519,6.6937173 6.6777151,6.5671351 6.5631765,6.4618141 6.4171601,6.3960581 6.0236253,6.2188198 5.5532543,6.3952643 5.3758971,6.7888029 L 4.7702595,7.9742726 4.4188655,8.2006178 H 3.1827857 c -0.5676181,0 -1.010439,0.1390156 -1.3451154,0.4046307 C 1.5029941,8.8708622 1.2884682,9.2416208 1.1049106,9.6821963 L 0.58608775,11.343094 c -0.15241075,0.405586 0.007866,0.846447 0.40151925,1.02372 0.1960884,0.08831 0.4115493,0.08791 0.5999535,0.01705 v 3.226709 c 1e-7,0.435148 0.3575785,0.792725 0.7927034,0.792725 0.4359995,0 0.7473081,-0.340232 0.7927035,-0.767404 l 0.2402915,-2.407629 h 0.050642 l 0.2413249,2.41073 c 0.045473,0.416496 0.3551835,0.764303 0.79167,0.764303 0.4351242,0 0.7932307,-0.348778 0.7932202,-0.792725 V 10.410321 C 5.4144876,10.349781 5.5296997,10.273848 5.6337583,10.182942 5.8143321,10.025193 5.9613568,9.8284541 6.084886,9.597959 v 0.2609686 c 0,0.2057164 0.064855,0.4210314 0.2346073,0.5663794 0.083046,0.07111 0.1834865,0.11695 0.2945507,0.140045 0,0.338558 -0.1294762,1.257108 -0.2930006,2.264484 -0.1635235,1.007378 -0.3590318,2.127148 -0.4883342,2.966258 -0.074943,0.486337 0.1683165,0.973513 0.660414,1.10537 0.4910885,0.13159 0.9953075,-0.155692 1.1327288,-0.652163 L 8.389617,13.493889 H 8.54206 l 0.761698,2.755416 c 0.134934,0.487469 0.6437069,0.783752 1.134796,0.652163 0.492097,-0.131857 0.736611,-0.624573 0.659897,-1.10537 -0.129306,-0.839108 -0.324809,-1.95888 -0.488335,-2.966258 -0.163525,-1.007376 -0.293,-1.925928 -0.293,-2.264484 0.111176,-0.02159 0.212,-0.06894 0.295067,-0.140045 0.169754,-0.145348 0.234091,-0.360663 0.234091,-0.5663794 V 9.5969292 c 0.123641,0.2309344 0.270287,0.4280358 0.451128,0.5860168 0.104175,0.09101 0.219627,0.166807 0.344159,0.227379 l -0.0021,5.200253 c -1.6e-5,0.435157 0.35913,0.792725 0.794254,0.792725 0.436484,0 0.745686,-0.349995 0.792187,-0.764303 l 0.241324,-2.41073 h 0.05064 l 0.240291,2.407629 c 0.03865,0.416817 0.356703,0.767404 0.792704,0.767404 0.435124,0 0.79322,-0.357577 0.79322,-0.792725 v -3.226193 c 0.188626,0.07043 0.403729,0.07056 0.599436,-0.01757 0.39365,-0.177272 0.559065,-0.645409 0.401519,-1.02372 L 15.826767,9.6821963 C 15.643169,9.2416169 15.428683,8.8708622 15.094006,8.6052485 14.759329,8.3396334 14.315992,8.2006178 13.748375,8.2006178 h -1.23608 L 12.160901,7.9742726 11.555263,6.7888029 C 11.377909,6.3952558 10.905985,6.2188198 10.51245,6.3960581 10.36681,6.4616439 10.252578,6.5665379 10.174492,6.6926838 9.9838175,6.4985317 9.7788251,6.3549697 9.5952084,6.241544 c 0.1221519,-0.2001504 0.19275,-0.4347596 0.19275,-0.6852367 5.9e-6,-5.291e-4 -2.9e-6,-0.00103 0,-0.00156 v -5.302e-4 -1.056254 c 0,-0.2977281 0.2446436,-0.5291721 0.5291576,-0.5291721 h 0.529158 v 0.5291721 c 1.35e-4,0.2352909 0.284794,0.3534786 0.451645,0.1875873 l 1.323929,-1.3239638 c 0.102549,-0.1031983 0.102549,-0.2699096 0,-0.3731076 L 11.297919,1.6639983 c -0.0756,-0.074896 -0.188941,-0.096901 -0.287317,-0.056328 -0.09905,0.040685 -0.164077,0.1368388 -0.164328,0.2439152 v 0.5291721 h -0.529158 c -0.391627,0 -0.753171,0.1055156 -1.0583155,0.2785388 V 1.8515857 H 9.7879584 C 10.023237,1.851451 10.141422,1.567305 9.9755406,1.4004458 L 8.6531625,0.07803222 C 8.6014543,0.02610328 8.5334683,0 8.4655803,0 Z m 0,0.6387273 0.6816009,0.6836862 H 8.995255 C 8.8483332,1.32185 8.7285602,1.4411037 8.7291258,1.5880332 V 3.0944166 C 8.6228614,3.2146955 8.5319012,3.3510762 8.4655803,3.4711419 8.3999838,3.3487719 8.3118324,3.2190158 8.1999679,3.0923497 V 1.5880332 C 8.2005291,1.4418671 8.0825802,1.3229306 7.9364224,1.3224135 H 7.7819122 Z M 5.5557283,2.4903129 V 2.6463774 C 5.556231,2.7917815 5.6738772,2.9094154 5.8192738,2.90993 h 0.7947704 c 0.804133,-4.39e-5 1.457406,0.5827262 1.5688704,1.3534196 -0.1879957,0.041463 -0.3610116,0.123317 -0.5100378,0.2351302 0,-0.5824963 -0.4663117,-1.058861 -1.0588326,-1.058861 H 5.8192738 C 5.6731152,3.440148 5.5551668,3.5590729 5.5557283,3.7052384 V 3.8592359 L 4.8699933,3.1760662 Z m 5.8202207,0 0.685218,0.6857533 -0.685218,0.6831697 V 3.7052384 C 11.376504,3.5590729 11.258563,3.4401358 11.112403,3.4396188 h -0.795287 c -0.5901478,0 -1.0583155,0.4763647 -1.0583155,1.058861 C 9.1093544,4.3863488 8.9353042,4.3041855 8.7466955,4.2628329 8.8586647,3.4923898 9.5241105,2.90993 10.317116,2.90993 h 0.795287 c 0.145396,-5.027e-4 0.263031,-0.1181485 0.263546,-0.2635526 z M 8.4624797,4.7620324 c 0.4522461,0.00788 0.7963208,0.3577817 0.7963208,0.7942749 0,0.4414955 -0.351748,0.7927248 -0.7932202,0.7927248 -0.441472,0 -0.7927035,-0.3512298 -0.7927035,-0.80306 0.010578,-0.4353052 0.3468876,-0.7733038 0.7896029,-0.7839397 z m 5.0130473,0.2651029 c -0.73904,0.018436 -1.306874,0.6057938 -1.306874,1.3218968 0,0.7274691 0.596497,1.3244805 1.323927,1.3244805 0.727433,0 1.321862,-0.5970114 1.321862,-1.3244805 0,-0.7274691 -0.573325,-1.3218968 -1.338915,-1.3218968 z M 2.1167184,6.3490303 c 0,0.7274691 0.5944306,1.3244805 1.3218614,1.3244805 0.7274314,0 1.3218609,-0.5970114 1.3218614,-1.3244805 0,-0.7274691 -0.5939432,-1.3299546 -1.3306462,-1.3208642 -0.7468491,0.00621 -1.3130764,0.6047615 -1.3130766,1.3208642 z m 6.3488619,0.5291721 c 0.2822917,0 0.5448274,-0.0892 0.7601478,-0.2413315 0.2349636,0.1396416 0.4858635,0.3089332 0.6872851,0.5581112 0.1139788,0.1410032 0.2145568,0.3070434 0.2867988,0.5136692 0.09322,0.2725993 0.116328,0.5494588 0.117304,0.7715369 v 1.3787416 c 0,0.1002059 -0.0257,0.1447572 -0.04857,0.1643322 -0.02227,0.01906 -0.07587,0.04508 -0.217037,0.01912 L 9.318744,9.8036382 C 9.6628327,9.6789649 9.8655928,9.3101314 9.7879584,8.9499348 V 8.4703725 C 9.7885405,8.3242001 9.6705771,8.2052549 9.5244129,8.204753 9.4021531,8.2042768 9.2989408,8.2866822 9.268102,8.3990584 9.1465375,8.3643681 9.0150299,8.3602502 8.8857026,8.3938911 L 7.6728768,8.6657104 V 8.4703715 C 7.6734588,8.3234349 7.5541919,8.2041717 7.4072644,8.204752 7.2610999,8.2052549 7.1431426,8.324199 7.1437188,8.4703715 l 0.00156,0.5513931 c 0.014384,0.1694569 0.1774201,0.2636542 0.3203899,0.2315128 L 9.0133522,8.9085922 c 0.114124,-0.03058 0.2265801,0.034619 0.2552774,0.143662 0.028905,0.1078831 -0.033341,0.2297427 -0.1519263,0.2620021 -0.7466019,0.2423995 -1.4901616,0.4849479 -2.2370359,0.7281277 -0.1411653,0.02595 -0.194257,-6.7e-5 -0.2165205,-0.01912 -0.02286,-0.01957 -0.049092,-0.064129 -0.049092,-0.1643325 4e-6,-0.4596627 -4.2e-6,-0.9190817 0,-1.3787416 4e-6,-0.6157637 0.1749548,-1.0010867 0.4046199,-1.2852061 C 7.2200953,6.9457969 7.4710013,6.7765155 7.7059547,6.6368718 7.9212103,6.7888784 8.183415,6.8782024 8.4655803,6.8782024 Z m 5.167e-4,3.2029386 1.3218614,0.430468 v 0.05426 c 0,0.455436 0.1343752,1.337541 0.2986846,2.349751 0.164308,1.012211 0.360514,2.131098 0.488335,2.960574 0.03679,0.238719 -0.05759,0.455852 -0.273364,0.513669 -0.216774,0.05809 -0.4256916,-0.06435 -0.4862677,-0.28319 L 8.9988722,13.15799 C 8.9668117,13.043312 8.8621468,12.964258 8.7430781,12.964718 H 8.1885992 c -0.1190685,-4.5e-4 -0.2242506,0.07859 -0.2563109,0.193272 L 7.1163307,16.106677 C 7.055758,16.325514 6.8419753,16.446786 6.629547,16.389867 6.4137801,16.332046 6.3180571,16.113558 6.3546327,15.876198 6.4824503,15.046722 6.6781416,13.927834 6.8424502,12.915624 7.0067588,11.903414 7.1437188,11.021306 7.1437188,10.565873 v -0.05426 z" id="path836" style="opacity:1;fill:#000000;fill-opacity:1;stroke:none;stroke-width:0.5291667;stroke-linecap:round;stroke-linejoin:round;stroke-miterlimit:4;stroke-dasharray:none;stroke-dashoffset:0;stroke-opacity:1"/></g></svg>